<svg width="348" height="535" viewBox="0 0 348 535" fill="none" xmlns="http://www.w3.org/2000/svg">
<g id="starsSVGMobile" clip-path="url(#clip0)">
<g id="clouds">
<path id="Vector" opacity="0.1" d="M342.757 345.691H332.962C335 345.112 336.451 343.714 336.451 342.048C336.451 340.382 335 338.984 332.962 338.405H337.239C340.276 338.405 342.757 336.641 342.757 334.486C342.757 332.331 340.276 330.566 337.239 330.566H302.566C299.529 330.566 297.048 332.331 297.048 334.486C297.048 336.132 298.499 337.55 300.537 338.128H296.26C293.224 338.128 290.742 339.893 290.742 342.048C290.742 344.203 293.224 345.967 296.26 345.967H306.055C304.016 346.546 302.566 347.944 302.566 349.61C302.566 351.765 305.047 353.529 308.084 353.529H342.762C345.798 353.529 348.279 351.765 348.279 349.61C348.279 347.455 345.784 345.691 342.757 345.691Z" fill="white"/>
<path id="Vector_2" opacity="0.1" d="M228.07 265.518H215.094C217.795 264.939 219.716 263.541 219.716 261.875C219.716 260.209 217.795 258.811 215.094 258.232H220.761C224.782 258.232 228.075 256.468 228.075 254.313C228.075 252.158 224.786 250.394 220.761 250.394H174.8C170.78 250.394 167.487 252.158 167.487 254.313C167.487 255.959 169.409 257.377 172.109 257.956H166.447C162.426 257.956 159.134 259.72 159.134 261.875C159.134 264.03 162.422 265.794 166.447 265.794H179.423C176.722 266.373 174.8 267.771 174.8 269.437C174.8 271.592 178.089 273.357 182.114 273.357H228.07C232.09 273.357 235.383 271.592 235.383 269.437C235.383 267.282 232.09 265.518 228.07 265.518Z" fill="white"/>
<path id="Vector_3" opacity="0.1" d="M60.2363 134.124H47.2606C49.9612 133.546 51.8828 132.147 51.8828 130.481C51.8828 128.816 49.9612 127.417 47.2606 126.839H52.9276C56.9481 126.839 60.241 125.074 60.241 122.919C60.241 120.764 56.9528 119 52.9276 119H6.96695C2.94644 119 -0.346452 120.764 -0.346452 122.919C-0.346452 124.565 1.5752 125.984 4.27575 126.562H-1.38655C-5.40706 126.562 -8.69995 128.327 -8.69995 130.481C-8.69995 132.636 -5.41172 134.401 -1.38655 134.401H11.5891C8.8886 134.979 6.96695 136.378 6.96695 138.044C6.96695 140.199 10.2552 141.963 14.2804 141.963H60.2363C64.2568 141.963 67.5497 140.199 67.5497 138.044C67.5497 135.889 64.2568 134.124 60.2363 134.124Z" fill="white"/>
</g>
<g id="shootingStart">
<path id="Vector_4" d="M296.38 395.81L328.493 361.781" stroke="url(#paint0_linear)" stroke-miterlimit="10" stroke-linecap="round"/>
<path id="Vector_5" d="M2.90002 264.029L35.0128 230" stroke="url(#paint1_linear)" stroke-miterlimit="10" stroke-linecap="round"/>
<path id="Vector_6" d="M245.533 111.029L277.646 77" stroke="url(#paint2_linear)" stroke-miterlimit="10" stroke-linecap="round"/>
</g>
<g id="pointedStar">
<path id="Vector_7" d="M315.685 266.897H315.48C315.232 266.897 314.995 266.793 314.82 266.607C314.645 266.422 314.547 266.171 314.547 265.908V265.691H314.034V265.908C314.034 266.171 313.936 266.422 313.761 266.607C313.586 266.793 313.348 266.897 313.101 266.897H312.896V267.441H313.101C313.348 267.441 313.586 267.545 313.761 267.73C313.936 267.915 314.034 268.167 314.034 268.429V268.647H314.547V268.429C314.547 268.167 314.645 267.915 314.82 267.73C314.995 267.545 315.232 267.441 315.48 267.441H315.685V266.897Z" fill="white"/>
<path id="Vector_8" d="M22.1225 430.158H21.9173C21.6699 430.158 21.4326 430.054 21.2577 429.869C21.0828 429.683 20.9845 429.432 20.9845 429.17V428.952H20.4714V429.17C20.4714 429.432 20.3731 429.683 20.1982 429.869C20.0233 430.054 19.786 430.158 19.5386 430.158H19.3334V430.702H19.5386C19.786 430.702 20.0233 430.806 20.1982 430.991C20.3731 431.177 20.4714 431.428 20.4714 431.69V431.908H20.9845V431.69C20.9845 431.428 21.0828 431.177 21.2577 430.991C21.4326 430.806 21.6699 430.702 21.9173 430.702H22.1225V430.158Z" fill="white"/>
<path id="Vector_9" d="M185.648 339.552H185.443C185.196 339.552 184.958 339.448 184.783 339.262C184.608 339.077 184.51 338.825 184.51 338.563V338.346H183.997V338.563C183.997 338.825 183.899 339.077 183.724 339.262C183.549 339.448 183.312 339.552 183.064 339.552H182.859V340.095H183.064C183.312 340.095 183.549 340.2 183.724 340.385C183.899 340.57 183.997 340.822 183.997 341.084V341.301H184.51V341.084C184.51 340.822 184.608 340.57 184.783 340.385C184.958 340.2 185.196 340.095 185.443 340.095H185.648V339.552Z" fill="white"/>
<path id="Vector_10" d="M114.25 270.206H114.045C113.797 270.206 113.56 270.102 113.385 269.916C113.21 269.731 113.112 269.48 113.112 269.217V269H112.599V269.217C112.599 269.48 112.501 269.731 112.326 269.916C112.151 270.102 111.914 270.206 111.666 270.206H111.461V270.75H111.666C111.914 270.75 112.151 270.854 112.326 271.039C112.501 271.225 112.599 271.476 112.599 271.738V271.956H113.112V271.738C113.112 271.476 113.21 271.225 113.385 271.039C113.56 270.854 113.797 270.75 114.045 270.75H114.25V270.206Z" fill="white"/>
<path id="Vector_11" d="M296.95 78.206H296.745C296.498 78.206 296.26 78.1018 296.085 77.9165C295.91 77.7311 295.812 77.4796 295.812 77.2175V77H295.299V77.2175C295.299 77.4796 295.201 77.7311 295.026 77.9165C294.851 78.1018 294.614 78.206 294.366 78.206H294.161V78.7497H294.366C294.614 78.7497 294.851 78.8538 295.026 79.0392C295.201 79.2246 295.299 79.476 295.299 79.7382V79.9556H295.812V79.7382C295.812 79.476 295.91 79.2246 296.085 79.0392C296.26 78.8538 296.498 78.7497 296.745 78.7497H296.95V78.206Z" fill="white"/>
<path id="Vector_12" d="M287.284 169.206H287.078C286.831 169.206 286.594 169.102 286.419 168.916C286.244 168.731 286.145 168.48 286.145 168.217V168H285.632V168.217C285.632 168.48 285.534 168.731 285.359 168.916C285.184 169.102 284.947 169.206 284.7 169.206H284.494V169.75H284.7C284.947 169.75 285.184 169.854 285.359 170.039C285.534 170.225 285.632 170.476 285.632 170.738V170.956H286.145V170.738C286.145 170.476 286.244 170.225 286.419 170.039C286.594 169.854 286.831 169.75 287.078 169.75H287.284V169.206Z" fill="white"/>
</g>
<g id="starts">
<path id="Vector_13" d="M281.666 121.487C279.888 121.487 279.888 124.408 281.666 124.408C283.443 124.408 283.443 121.487 281.666 121.487Z" fill="white"/>
<path id="Vector_14" d="M214.674 202.495C212.897 202.495 212.897 205.416 214.674 205.416C216.451 205.416 216.451 202.495 214.674 202.495Z" fill="white"/>
<path id="Vector_15" d="M142.958 170.759C141.181 170.759 141.181 173.68 142.958 173.68C144.735 173.68 144.735 170.759 142.958 170.759Z" fill="white"/>
<path id="Vector_16" d="M338.013 200.138H337.808C337.561 200.138 337.324 200.033 337.149 199.848C336.974 199.663 336.875 199.411 336.875 199.149V198.932H336.362V199.149C336.362 199.411 336.264 199.663 336.089 199.848C335.914 200.033 335.677 200.138 335.429 200.138H335.224V200.681H335.476C335.724 200.681 335.961 200.785 336.136 200.971C336.311 201.156 336.409 201.408 336.409 201.67V201.887H336.875V201.67C336.875 201.408 336.974 201.156 337.149 200.971C337.324 200.785 337.561 200.681 337.808 200.681H338.013V200.138Z" fill="white"/>
<path id="Vector_17" d="M264.491 232.022L264.333 231.883C264.146 231.717 264.028 231.481 264.004 231.224C263.979 230.968 264.051 230.711 264.202 230.509L264.333 230.341L263.936 230L263.806 230.168C263.65 230.366 263.426 230.491 263.184 230.517C262.942 230.543 262.7 230.467 262.509 230.306L262.351 230.168L262.029 230.588L262.187 230.727C262.374 230.892 262.492 231.129 262.517 231.385C262.541 231.642 262.47 231.899 262.318 232.101L262.187 232.269L262.584 232.61L262.714 232.442C262.871 232.244 263.094 232.119 263.336 232.093C263.578 232.067 263.821 232.142 264.011 232.303L264.17 232.442L264.491 232.022Z" fill="white"/>
<path id="Vector_18" d="M214.525 172.727L214.367 172.588C214.18 172.423 214.062 172.186 214.037 171.929C214.013 171.673 214.084 171.416 214.236 171.214L214.367 171.046L213.97 170.705L213.839 170.873C213.683 171.071 213.46 171.196 213.218 171.222C212.975 171.248 212.733 171.172 212.543 171.012L212.384 170.873L212.062 171.293L212.221 171.432C212.408 171.597 212.526 171.834 212.55 172.09C212.575 172.347 212.503 172.604 212.352 172.806L212.221 172.974L212.617 173.315L212.748 173.147C212.904 172.949 213.127 172.824 213.37 172.798C213.612 172.772 213.854 172.847 214.045 173.008L214.203 173.147L214.525 172.727Z" fill="white"/>
<path id="Vector_19" d="M306.339 377.748L306.181 377.609C305.994 377.444 305.876 377.207 305.851 376.95C305.827 376.694 305.898 376.437 306.05 376.235L306.181 376.067L305.784 375.726L305.653 375.894C305.497 376.092 305.274 376.217 305.032 376.243C304.789 376.269 304.547 376.193 304.357 376.033L304.198 375.894L303.876 376.314L304.035 376.453C304.222 376.618 304.34 376.855 304.364 377.111C304.389 377.368 304.317 377.625 304.166 377.827L304.035 377.995L304.431 378.336L304.562 378.168C304.718 377.97 304.942 377.845 305.184 377.819C305.426 377.793 305.668 377.868 305.859 378.029L306.017 378.168L306.339 377.748Z" fill="white"/>
<path id="Vector_20" d="M338.825 127.171C338.728 127.183 338.638 127.231 338.573 127.309C338.508 127.386 338.471 127.485 338.471 127.589C338.471 127.693 338.508 127.792 338.573 127.87C338.638 127.947 338.728 127.995 338.825 128.007C338.922 127.995 339.012 127.947 339.077 127.87C339.142 127.792 339.178 127.693 339.178 127.589C339.178 127.485 339.142 127.386 339.077 127.309C339.012 127.231 338.922 127.183 338.825 127.171V127.171Z" fill="white"/>
<path id="Vector_21" d="M303.363 159.737C303.266 159.749 303.176 159.797 303.111 159.874C303.046 159.952 303.01 160.051 303.01 160.155C303.01 160.258 303.046 160.358 303.111 160.435C303.176 160.513 303.266 160.561 303.363 160.573C303.46 160.561 303.55 160.513 303.615 160.435C303.681 160.358 303.717 160.258 303.717 160.155C303.717 160.051 303.681 159.952 303.615 159.874C303.55 159.797 303.46 159.749 303.363 159.737V159.737Z" fill="white"/>
<path id="Vector_22" d="M257.263 152.22C257.166 152.231 257.076 152.28 257.011 152.357C256.945 152.434 256.909 152.534 256.909 152.637C256.909 152.741 256.945 152.841 257.011 152.918C257.076 152.995 257.166 153.044 257.263 153.055C257.36 153.044 257.45 152.995 257.515 152.918C257.58 152.841 257.616 152.741 257.616 152.637C257.616 152.534 257.58 152.434 257.515 152.357C257.45 152.28 257.36 152.231 257.263 152.22V152.22Z" fill="white"/>
<path id="Vector_23" d="M176.288 158.858H175.696C175.599 158.869 175.509 158.918 175.444 158.995C175.378 159.072 175.342 159.172 175.342 159.276C175.342 159.379 175.378 159.479 175.444 159.556C175.509 159.633 175.599 159.682 175.696 159.693H176.288C176.385 159.682 176.475 159.633 176.54 159.556C176.606 159.479 176.642 159.379 176.642 159.276C176.642 159.172 176.606 159.072 176.54 158.995C176.475 158.918 176.385 158.869 176.288 158.858V158.858Z" fill="white"/>
<path id="Vector_24" d="M166.242 212.346C166.144 212.357 166.055 212.406 165.989 212.483C165.924 212.56 165.888 212.66 165.888 212.763C165.888 212.867 165.924 212.967 165.989 213.044C166.055 213.121 166.144 213.17 166.242 213.181C166.339 213.17 166.429 213.121 166.494 213.044C166.559 212.967 166.595 212.867 166.595 212.763C166.595 212.66 166.559 212.56 166.494 212.483C166.429 212.406 166.339 212.357 166.242 212.346V212.346Z" fill="white"/>
<path id="Vector_25" d="M248.396 231.765C248.299 231.776 248.209 231.825 248.144 231.902C248.079 231.979 248.043 232.079 248.043 232.183C248.043 232.286 248.079 232.386 248.144 232.463C248.209 232.54 248.299 232.589 248.396 232.6C248.493 232.589 248.583 232.54 248.648 232.463C248.714 232.386 248.75 232.286 248.75 232.183C248.75 232.079 248.714 231.979 248.648 231.902C248.583 231.825 248.493 231.776 248.396 231.765V231.765Z" fill="white"/>
<path id="Vector_26" d="M254.898 195.438C254.801 195.449 254.711 195.498 254.646 195.575C254.581 195.652 254.544 195.752 254.544 195.855C254.544 195.959 254.581 196.059 254.646 196.136C254.711 196.213 254.801 196.262 254.898 196.273C254.995 196.262 255.085 196.213 255.15 196.136C255.215 196.059 255.251 195.959 255.251 195.855C255.251 195.752 255.215 195.652 255.15 195.575C255.085 195.498 254.995 195.449 254.898 195.438V195.438Z" fill="white"/>
<path id="Vector_27" d="M309.865 202.955C309.768 202.966 309.678 203.015 309.613 203.092C309.548 203.169 309.512 203.269 309.512 203.373C309.512 203.476 309.548 203.576 309.613 203.653C309.678 203.73 309.768 203.779 309.865 203.79C309.962 203.779 310.052 203.73 310.117 203.653C310.183 203.576 310.219 203.476 310.219 203.373C310.219 203.269 310.183 203.169 310.117 203.092C310.052 203.015 309.962 202.966 309.865 202.955V202.955Z" fill="white"/>
<path id="Vector_28" d="M304.543 328.841C304.446 328.853 304.356 328.901 304.291 328.978C304.226 329.055 304.19 329.155 304.19 329.259C304.19 329.362 304.226 329.462 304.291 329.539C304.356 329.617 304.446 329.665 304.543 329.677C304.641 329.665 304.73 329.617 304.796 329.539C304.861 329.462 304.897 329.362 304.897 329.259C304.897 329.155 304.861 329.055 304.796 328.978C304.73 328.901 304.641 328.853 304.543 328.841Z" fill="white"/>
<path id="Vector_29" d="M3.70495 259.947C3.60782 259.958 3.51802 260.007 3.45277 260.084C3.38753 260.161 3.35144 260.261 3.35144 260.365C3.35144 260.468 3.38753 260.568 3.45277 260.645C3.51802 260.722 3.60782 260.771 3.70495 260.783C3.80209 260.771 3.89191 260.722 3.95715 260.645C4.02239 260.568 4.05847 260.468 4.05847 260.365C4.05847 260.261 4.02239 260.161 3.95715 260.084C3.89191 260.007 3.80209 259.958 3.70495 259.947V259.947Z" fill="white"/>
<path id="Vector_30" d="M71.6758 302.537C71.5786 302.548 71.4888 302.597 71.4236 302.674C71.3583 302.751 71.3223 302.851 71.3223 302.955C71.3223 303.058 71.3583 303.158 71.4236 303.235C71.4888 303.312 71.5786 303.361 71.6758 303.372C71.7729 303.361 71.8627 303.312 71.928 303.235C71.9932 303.158 72.0293 303.058 72.0293 302.955C72.0293 302.851 71.9932 302.751 71.928 302.674C71.8627 302.597 71.7729 302.548 71.6758 302.537Z" fill="white"/>
<path id="Vector_31" d="M291.544 348.883C291.447 348.895 291.357 348.943 291.292 349.02C291.227 349.098 291.191 349.197 291.191 349.301C291.191 349.404 291.227 349.504 291.292 349.581C291.357 349.659 291.447 349.707 291.544 349.719C291.642 349.707 291.731 349.659 291.797 349.581C291.862 349.504 291.898 349.404 291.898 349.301C291.898 349.197 291.862 349.098 291.797 349.02C291.731 348.943 291.642 348.895 291.544 348.883Z" fill="white"/>
<path id="Vector_32" d="M278.541 395.234C278.444 395.246 278.354 395.294 278.288 395.371C278.223 395.449 278.187 395.548 278.187 395.652C278.187 395.756 278.223 395.855 278.288 395.933C278.354 396.01 278.444 396.058 278.541 396.07C278.638 396.058 278.728 396.01 278.793 395.933C278.858 395.855 278.894 395.756 278.894 395.652C278.894 395.548 278.858 395.449 278.793 395.371C278.728 395.294 278.638 395.246 278.541 395.234Z" fill="white"/>
<path id="Vector_33" d="M186.927 229.887C186.83 229.898 186.74 229.947 186.675 230.024C186.61 230.101 186.574 230.201 186.574 230.304C186.574 230.408 186.61 230.508 186.675 230.585C186.74 230.662 186.83 230.711 186.927 230.722C187.024 230.711 187.114 230.662 187.179 230.585C187.245 230.508 187.281 230.408 187.281 230.304C187.281 230.201 187.245 230.101 187.179 230.024C187.114 229.947 187.024 229.898 186.927 229.887V229.887Z" fill="white"/>
<path id="Vector_34" d="M130.78 212.974C130.683 212.985 130.593 213.034 130.528 213.111C130.463 213.188 130.427 213.288 130.427 213.391C130.427 213.495 130.463 213.595 130.528 213.672C130.593 213.749 130.683 213.798 130.78 213.809C130.877 213.798 130.967 213.749 131.032 213.672C131.097 213.595 131.134 213.495 131.134 213.391C131.134 213.288 131.097 213.188 131.032 213.111C130.967 213.034 130.877 212.985 130.78 212.974Z" fill="white"/>
<path id="Vector_35" d="M94.8438 143C94.7466 143.011 94.6568 143.06 94.5916 143.137C94.5263 143.214 94.4902 143.314 94.4902 143.418C94.4902 143.521 94.5263 143.621 94.5916 143.698C94.6568 143.775 94.7466 143.824 94.8438 143.835C94.9409 143.824 95.0307 143.775 95.096 143.698C95.1612 143.621 95.1973 143.521 95.1973 143.418C95.1973 143.314 95.1612 143.214 95.096 143.137C95.0307 143.06 94.9409 143.011 94.8438 143V143Z" fill="white"/>
<path id="Vector_36" d="M59.3823 143.627C59.2852 143.639 59.1954 143.688 59.1301 143.765C59.0649 143.842 59.0288 143.942 59.0288 144.045C59.0288 144.149 59.0649 144.249 59.1301 144.326C59.1954 144.403 59.2852 144.452 59.3823 144.463C59.4795 144.452 59.5693 144.403 59.6345 144.326C59.6998 144.249 59.7358 144.149 59.7358 144.045C59.7358 143.942 59.6998 143.842 59.6345 143.765C59.5693 143.688 59.4795 143.639 59.3823 143.627Z" fill="white"/>
<path id="Vector_37" d="M66.354 229.887C66.2569 229.898 66.1671 229.947 66.1018 230.024C66.0366 230.101 66.0005 230.201 66.0005 230.304C66.0005 230.408 66.0366 230.508 66.1018 230.585C66.1671 230.662 66.2569 230.711 66.354 230.722C66.4511 230.711 66.5409 230.662 66.6062 230.585C66.6714 230.508 66.7075 230.408 66.7075 230.304C66.7075 230.201 66.6714 230.101 66.6062 230.024C66.5409 229.947 66.4511 229.898 66.354 229.887Z" fill="white"/>
<path id="Vector_38" d="M338.233 160.365H337.64C337.379 160.365 337.129 160.475 336.944 160.671C336.76 160.866 336.656 161.132 336.656 161.408C336.656 161.685 336.76 161.95 336.944 162.146C337.129 162.341 337.379 162.451 337.64 162.451H338.233C338.494 162.451 338.744 162.341 338.929 162.146C339.113 161.95 339.217 161.685 339.217 161.408C339.217 161.132 339.113 160.866 338.929 160.671C338.744 160.475 338.494 160.365 338.233 160.365V160.365Z" fill="white"/>
<path id="Vector_39" d="M281.493 194.81C280.224 194.81 280.224 196.895 281.493 196.895C282.762 196.895 282.771 194.81 281.493 194.81Z" fill="white"/>
<path id="Vector_40" d="M236.596 229.887C235.327 229.887 235.327 231.972 236.596 231.972C237.864 231.972 237.846 229.887 236.596 229.887Z" fill="white"/>
<path id="Vector_41" d="M282.086 308.799C280.817 308.799 280.817 310.885 282.086 310.885C283.354 310.885 283.354 308.799 282.086 308.799Z" fill="white"/>
<path id="Vector_42" d="M328.186 294.396C326.917 294.396 326.917 296.482 328.186 296.482C329.455 296.482 329.455 294.396 328.186 294.396Z" fill="white"/>
<path id="Vector_43" d="M248.876 80.066L248.083 79.2257L248.876 78.3855L248.516 78L247.719 78.8402L246.926 78L246.562 78.3855L247.36 79.2257L246.562 80.066L246.926 80.4515L247.719 79.6063L248.516 80.4515L248.876 80.066Z" fill="white"/>
<path id="Vector_44" d="M289.18 432.185H288.587C288.326 432.185 288.076 432.294 287.891 432.49C287.707 432.686 287.603 432.951 287.603 433.227C287.603 433.504 287.707 433.769 287.891 433.965C288.076 434.16 288.326 434.27 288.587 434.27H289.18C289.441 434.27 289.691 434.16 289.876 433.965C290.06 433.769 290.164 433.504 290.164 433.227C290.164 432.951 290.06 432.686 289.876 432.49C289.691 432.294 289.441 432.185 289.18 432.185V432.185Z" fill="white"/>
<path id="Vector_45" d="M12.9328 159C11.1557 159 11.1557 161.921 12.9328 161.921C14.7098 161.921 14.7098 159 12.9328 159Z" fill="white"/>
</g>
</g>
<defs>
<linearGradient id="paint0_linear" x1="296.147" y1="378.793" x2="328.726" y2="378.793" gradientUnits="userSpaceOnUse">
<stop stop-color="white"/>
<stop offset="0.77" stop-color="white" stop-opacity="0.15"/>
</linearGradient>
<linearGradient id="paint1_linear" x1="19449.4" y1="4644.28" x2="21692.5" y2="4644.28" gradientUnits="userSpaceOnUse">
<stop stop-color="white"/>
<stop offset="0.77" stop-color="white" stop-opacity="0.15"/>
</linearGradient>
<linearGradient id="paint2_linear" x1="19692" y1="4491.28" x2="21935.1" y2="4491.28" gradientUnits="userSpaceOnUse">
<stop stop-color="white"/>
<stop offset="0.77" stop-color="white" stop-opacity="0.15"/>
</linearGradient>
<clipPath id="clip0">
<rect width="348" height="535" fill="white"/>
</clipPath>
</defs>
</svg>
